<svg xmlns="http://www.w3.org/2000/svg" xmlns:xlink="http://www.w3.org/1999/xlink" width="1920" height="1080" viewBox="0 0 1920 1080">
  <defs>
    <radialGradient id="radial-gradient" cx="0.5" cy="0.5" r="0.5" gradientUnits="objectBoundingBox">
      <stop offset="0" stop-color="#424478"/>
      <stop offset="0" stop-color="#424477"/>
      <stop offset="0" stop-color="#424478"/>
      <stop offset="0.253" stop-color="#353760"/>
      <stop offset="0.391" stop-color="#424477"/>
      <stop offset="1" stop-color="#21223c"/>
    </radialGradient>
    <radialGradient id="radial-gradient-2" cx="0.5" cy="0.5" r="0.5" gradientTransform="translate(0 0.034) scale(1 0.933)" gradientUnits="objectBoundingBox">
      <stop offset="0" stop-color="#424478"/>
      <stop offset="0.582" stop-color="#32335b"/>
      <stop offset="1" stop-color="#21223c"/>
    </radialGradient>
    <clipPath id="clip-Web_1920_1">
      <rect width="1920" height="1080"/>
    </clipPath>
  </defs>
  <g id="Web_1920_1" data-name="Web 1920 – 1" clip-path="url(#clip-Web_1920_1)">
    <rect width="1920" height="1080" fill="url(#radial-gradient)"/>
    <path id="Union_1" data-name="Union 1" d="M990.456,489.367a241.612,241.612,0,0,1-300.563-18.786C643.793,514,579.117,541,507.5,541c-86.494,0-162.878-39.4-208.625-99.523A196.677,196.677,0,0,1,196.5,470C87.976,470,0,382.7,0,275S87.976,80,196.5,80a196.643,196.643,0,0,1,141.178,59.365C382.623,102.471,442.181,80,507.5,80c57.74,0,110.971,17.553,153.592,47.11C706,70.326,774.831,34,852,34c67.448,0,128.525,27.751,172.829,72.658C1071.363,77.895,1128.167,61,1189.5,61c85.46,0,162.145,32.81,214.468,84.806a180.2,180.2,0,0,1,142.48-.252C1585.951,59.537,1671.2,0,1770,0c136.414,0,247,113.5,247,253.5S1906.414,507,1770,507a241.932,241.932,0,0,1-151.072-52.929C1584.533,496.829,1533.041,524,1475.5,524a180.212,180.212,0,0,1-95.712-27.494C1329.282,535.995,1262.6,560,1189.5,560,1112.1,560,1041.882,533.078,990.456,489.367Z" transform="translate(-48 821)" fill="#424478"/>
    <g id="Web_1920_1-2" data-name="Web 1920 – 1">
      <g id="Sizing_Rectangle" data-name="Sizing Rectangle" fill="rgba(0,0,0,0)" stroke="rgba(0,0,0,0)" stroke-width="1">
        <rect width="1920" height="1080" stroke="none"/>
        <rect x="0.5" y="0.5" width="1919" height="1079" fill="none"/>
      </g>
      <path id="rgba_62_64_114_1_" data-name="rgba(62,64,114,1)" d="M0,781H1919.5l.5.5V823H1761.5l-5,1-1-1-22-1-1-1h-20l-1,1h-14l-1,1-12,1-1-1H0Z" fill="#3e4072"/>
      <path id="rgba_62_64_114_1_2" data-name="rgba(62,64,114,1)" d="M1679.5,824l3.5.5-3.5.5Z" fill="#3e4072"/>
      <path id="rgba_62_64_114_1_3" data-name="rgba(62,64,114,1)" d="M1762.5,824l3.5.5-3.5.5Z" fill="#3e4072"/>
      <path id="rgba_62_64_114_1_4" data-name="rgba(62,64,114,1)" d="M1673.5,825l3.5.5-3.5.5Z" fill="#3e4072"/>
      <path id="rgba_62_64_114_1_5" data-name="rgba(62,64,114,1)" d="M1768.5,825l2.5.5-2.5.5Z" fill="#3e4072"/>
      <path id="rgba_62_64_114_1_6" data-name="rgba(62,64,114,1)" d="M1668.5,826l3.5.5-3.5.5Z" fill="#3e4072"/>
      <path id="rgba_62_64_114_1_7" data-name="rgba(62,64,114,1)" d="M1772.5,826l2.5.5-2.5.5Z" fill="#3e4072"/>
      <path id="rgba_62_64_114_1_8" data-name="rgba(62,64,114,1)" d="M1602.5,852l-1,2Z" fill="#3e4072"/>
      <path id="rgba_62_64_114_1_9" data-name="rgba(62,64,114,1)" d="M789.5,855l9.5.5-9.5.5Z" fill="#3e4072"/>
      <path id="rgba_62_64_114_1_10" data-name="rgba(62,64,114,1)" d="M813.5,855l7.5.5-7.5.5Z" fill="#3e4072"/>
      <path id="rgba_62_64_114_1_11" data-name="rgba(62,64,114,1)" d="M1846.5,855l1,2Z" fill="#3e4072"/>
      <path id="rgba_62_64_114_1_12" data-name="rgba(62,64,114,1)" d="M777.5,856l4.5.5-4.5.5Z" fill="#3e4072"/>
      <path id="rgba_62_64_114_1_13" data-name="rgba(62,64,114,1)" d="M828.5,856l3.5.5-3.5.5Z" fill="#3e4072"/>
      <path id="rgba_62_64_114_1_14" data-name="rgba(62,64,114,1)" d="M1595.5,856l-1,2Z" fill="#3e4072"/>
      <path id="rgba_62_64_114_1_15" data-name="rgba(62,64,114,1)" d="M769.5,857l2.5.5-2.5.5Z" fill="#3e4072"/>
      <path id="rgba_62_64_114_1_16" data-name="rgba(62,64,114,1)" d="M837.5,857l2.5.5-2.5.5Z" fill="#3e4072"/>
      <path id="rgba_62_64_114_1_17" data-name="rgba(62,64,114,1)" d="M763.5,858l2.5.5-2.5.5Z" fill="#3e4072"/>
      <path id="rgba_62_64_114_1_18" data-name="rgba(62,64,114,1)" d="M843.5,858l2.5.5-2.5.5Z" fill="#3e4072"/>
      <path id="rgba_62_64_114_1_19" data-name="rgba(62,64,114,1)" d="M752.5,860l2.5.5-2.5.5Z" fill="#3e4072"/>
      <path id="rgba_62_64_114_1_20" data-name="rgba(62,64,114,1)" d="M1586.5,862l-1,2Z" fill="#3e4072"/>
      <path id="rgba_62_64_114_1_21" data-name="rgba(62,64,114,1)" d="M1583.5,864l-1,2Z" fill="#3e4072"/>
      <path id="rgba_62_64_114_1_22" data-name="rgba(62,64,114,1)" d="M1579.5,867l-1,2Z" fill="#3e4072"/>
      <path id="rgba_62_64_114_1_23" data-name="rgba(62,64,114,1)" d="M1864.5,867l1,2Z" fill="#3e4072"/>
      <path id="rgba_62_64_114_1_24" data-name="rgba(62,64,114,1)" d="M1575.5,870l-1,2Z" fill="#3e4072"/>
      <path id="rgba_62_64_114_1_25" data-name="rgba(62,64,114,1)" d="M1868.5,870l1,2Z" fill="#3e4072"/>
      <path id="rgba_62_64_114_1_26" data-name="rgba(62,64,114,1)" d="M1571.5,873l-1,2Z" fill="#3e4072"/>
      <path id="rgba_62_64_114_1_27" data-name="rgba(62,64,114,1)" d="M1873.5,874l1,2Z" fill="#3e4072"/>
      <path id="rgba_62_64_114_1_28" data-name="rgba(62,64,114,1)" d="M1566.5,877l-2,3Z" fill="#3e4072"/>
      <path id="rgba_62_64_114_1_29" data-name="rgba(62,64,114,1)" d="M1879.5,879l3,4Z" fill="#3e4072"/>
      <path id="rgba_62_64_114_1_30" data-name="rgba(62,64,114,1)" d="M1126.5,882l8.5.5-8.5.5Z" fill="#3e4072"/>
      <path id="rgba_62_64_114_1_31" data-name="rgba(62,64,114,1)" d="M1146.5,882l10.5.5-10.5.5Z" fill="#3e4072"/>
      <path id="rgba_62_64_114_1_32" data-name="rgba(62,64,114,1)" d="M1111.5,883l3.5.5-3.5.5Z" fill="#3e4072"/>
      <path id="rgba_62_64_114_1_33" data-name="rgba(62,64,114,1)" d="M1167.5,883l4.5.5-4.5.5Z" fill="#3e4072"/>
      <path id="rgba_62_64_114_1_34" data-name="rgba(62,64,114,1)" d="M1101.5,884l2.5.5-2.5.5Z" fill="#3e4072"/>
      <path id="rgba_62_64_114_1_35" data-name="rgba(62,64,114,1)" d="M1179.5,884l2.5.5-2.5.5Z" fill="#3e4072"/>
      <path id="rgba_62_64_114_1_36" data-name="rgba(62,64,114,1)" d="M1558.5,884l-3,4Z" fill="#3e4072"/>
      <path id="rgba_62_64_114_1_37" data-name="rgba(62,64,114,1)" d="M1889.5,888l10,11Z" fill="#3e4072"/>
      <path id="rgba_62_64_114_1_38" data-name="rgba(62,64,114,1)" d="M1549.5,893l-1,2Z" fill="#3e4072"/>
      <path id="rgba_62_64_114_1_39" data-name="rgba(62,64,114,1)" d="M1546.5,896l-5,6Z" fill="#3e4072"/>
      <path id="rgba_62_64_114_1_40" data-name="rgba(62,64,114,1)" d="M136.5,901l6.5.5-6.5.5Z" fill="#3e4072"/>
      <path id="rgba_62_64_114_1_41" data-name="rgba(62,64,114,1)" d="M153.5,901l7.5.5-7.5.5Z" fill="#3e4072"/>
      <path id="rgba_62_64_114_1_42" data-name="rgba(62,64,114,1)" d="M445.5,901l8.5.5-8.5.5Z" fill="#3e4072"/>
      <path id="rgba_62_64_114_1_43" data-name="rgba(62,64,114,1)" d="M464.5,901l9.5.5-9.5.5Z" fill="#3e4072"/>
      <path id="rgba_62_64_114_1_44" data-name="rgba(62,64,114,1)" d="M661.5,901l-1,2Z" fill="#3e4072"/>
      <path id="rgba_62_64_114_1_45" data-name="rgba(62,64,114,1)" d="M125.5,902l2.5.5-2.5.5Z" fill="#3e4072"/>
      <path id="rgba_62_64_114_1_46" data-name="rgba(62,64,114,1)" d="M431.5,902l2.5.5-2.5.5Z" fill="#3e4072"/>
      <path id="rgba_62_64_114_1_47" data-name="rgba(62,64,114,1)" d="M485.5,902l2.5.5-2.5.5Z" fill="#3e4072"/>
      <path id="rgba_62_64_114_1_48" data-name="rgba(62,64,114,1)" d="M947.5,902l1,2Z" fill="#3e4072"/>
      <path id="rgba_62_64_114_1_49" data-name="rgba(62,64,114,1)" d="M1905.5,905l2,3Z" fill="#3e4072"/>
      <path id="rgba_62_64_114_1_50" data-name="rgba(62,64,114,1)" d="M952.5,906l1,2Z" fill="#3e4072"/>
      <path id="rgba_62_64_114_1_51" data-name="rgba(62,64,114,1)" d="M652.5,908l-1,2Z" fill="#3e4072"/>
      <path id="rgba_62_64_114_1_52" data-name="rgba(62,64,114,1)" d="M1535.5,908l-1,2Z" fill="#3e4072"/>
      <path id="rgba_62_64_114_1_53" data-name="rgba(62,64,114,1)" d="M957.5,910l1,2Z" fill="#3e4072"/>
      <path id="rgba_62_64_114_1_54" data-name="rgba(62,64,114,1)" d="M1531.5,913l-1,2Z" fill="#3e4072"/>
      <path id="rgba_62_64_114_1_55" data-name="rgba(62,64,114,1)" d="M645.5,914l-2,3Z" fill="#3e4072"/>
      <path id="rgba_62_64_114_1_56" data-name="rgba(62,64,114,1)" d="M964.5,916l2,3Z" fill="#3e4072"/>
      <path id="rgba_62_64_114_1_57" data-name="rgba(62,64,114,1)" d="M1914.5,916l1,2Z" fill="#3e4072"/>
      <path id="rgba_62_64_114_1_58" data-name="rgba(62,64,114,1)" d="M634.5,924l-5,6Z" fill="#3e4072"/>
      <path id="rgba_62_64_114_1_59" data-name="rgba(62,64,114,1)" d="M1320.5,937l1,2Z" fill="#3e4072"/>
      <path id="rgba_62_64_114_1_60" data-name="rgba(62,64,114,1)" d="M621.5,938l-1,2Z" fill="#3e4072"/>
      <path id="rgba_62_64_114_1_61" data-name="rgba(62,64,114,1)" d="M270.5,943l1,2Z" fill="#3e4072"/>
      <path id="rgba_62_64_114_1_62" data-name="rgba(62,64,114,1)" d="M616.5,944l-1,2Z" fill="#3e4072"/>
      <path id="rgba_62_64_114_1_63" data-name="rgba(62,64,114,1)" d="M22.5,946l-2,3Z" fill="#3e4072"/>
      <path id="rgba_62_64_114_1_64" data-name="rgba(62,64,114,1)" d="M1332.5,946l1,2Z" fill="#3e4072"/>
      <path id="rgba_62_64_114_1_65" data-name="rgba(62,64,114,1)" d="M275.5,947l3,4Z" fill="#3e4072"/>
      <path id="rgba_62_64_114_1_66" data-name="rgba(62,64,114,1)" d="M1337.5,950l2,3Z" fill="#3e4072"/>
      <path id="rgba_62_64_114_1_67" data-name="rgba(62,64,114,1)" d="M1418.5,952l5.5.5-5.5.5Z" fill="#3e4072"/>
      <path id="rgba_62_64_114_1_68" data-name="rgba(62,64,114,1)" d="M1431.5,952l5.5.5-5.5.5Z" fill="#3e4072"/>
      <path id="rgba_62_64_114_1_69" data-name="rgba(62,64,114,1)" d="M14.5,953l-9,10Z" fill="#3e4072"/>
      <path id="rgba_62_64_114_1_70" data-name="rgba(62,64,114,1)" d="M298.5,953l-1,2Z" fill="#3e4072"/>
      <path id="rgba_62_64_114_1_71" data-name="rgba(62,64,114,1)" d="M1344.5,956l1,2Z" fill="#3e4072"/>
      <path id="rgba_62_64_114_1_72" data-name="rgba(62,64,114,1)" d="M293.5,957l-1,2Z" fill="#3e4072"/>
      <path id="rgba_62_64_114_1_73" data-name="rgba(62,64,114,1)" d="M287.5,958l2,3Z" fill="#3e4072"/>
      <path id="rgba_65_68_119_1_" data-name="rgba(65,68,119,1)" d="M0,771H1919.5l.5.5V781H.5l-.5-.5Z" fill="#414477"/>
      <path id="rgba_65_68_119_1_2" data-name="rgba(65,68,119,1)" d="M1712.5,821l8.5.5-8.5.5Z" fill="#414477"/>
      <path id="rgba_65_68_119_1_3" data-name="rgba(65,68,119,1)" d="M1730.5,821l2.5.5-2.5.5Z" fill="#414477"/>
      <path id="rgba_65_68_119_1_4" data-name="rgba(65,68,119,1)" d="M1697.5,822l2.5.5-2.5.5Z" fill="#414477"/>
      <path id="rgba_65_68_119_1_5" data-name="rgba(65,68,119,1)" d="M799.5,855l3.5.5-3.5.5Z" fill="#414477"/>
      <path id="rgba_65_68_119_1_6" data-name="rgba(65,68,119,1)" d="M806.5,855l6.5.5-6.5.5Z" fill="#414477"/>
      <path id="rgba_65_68_119_1_7" data-name="rgba(65,68,119,1)" d="M1573.5,872l-1,2Z" fill="#414477"/>
      <path id="rgba_65_68_119_1_8" data-name="rgba(65,68,119,1)" d="M1875.5,876l1,2Z" fill="#414477"/>
      <path id="rgba_65_68_119_1_9" data-name="rgba(65,68,119,1)" d="M1563.5,880l-1,2Z" fill="#414477"/>
      <path id="rgba_65_68_119_1_10" data-name="rgba(65,68,119,1)" d="M1135.5,882l4.5.5-4.5.5Z" fill="#414477"/>
      <path id="rgba_65_68_119_1_11" data-name="rgba(65,68,119,1)" d="M1143.5,882l2.5.5-2.5.5Z" fill="#414477"/>
      <path id="rgba_65_68_119_1_12" data-name="rgba(65,68,119,1)" d="M1883.5,883l1,2Z" fill="#414477"/>
      <path id="rgba_65_68_119_1_13" data-name="rgba(65,68,119,1)" d="M1554.5,888l-4,5Z" fill="#414477"/>
      <path id="rgba_65_68_119_1_14" data-name="rgba(65,68,119,1)" d="M143.5,901l3.5.5-3.5.5Z" fill="#414477"/>
      <path id="rgba_65_68_119_1_15" data-name="rgba(65,68,119,1)" d="M150.5,901l2.5.5-2.5.5Z" fill="#414477"/>
      <path id="rgba_65_68_119_1_16" data-name="rgba(65,68,119,1)" d="M454.5,901l3.5.5-3.5.5Z" fill="#414477"/>
      <path id="rgba_65_68_119_1_17" data-name="rgba(65,68,119,1)" d="M461.5,901l2.5.5-2.5.5Z" fill="#414477"/>
      <path id="rgba_65_68_119_1_18" data-name="rgba(65,68,119,1)" d="M1903.5,903l1,2Z" fill="#414477"/>
      <path id="rgba_65_68_119_1_19" data-name="rgba(65,68,119,1)" d="M1537.5,906l-1,2Z" fill="#414477"/>
      <path id="rgba_65_68_119_1_20" data-name="rgba(65,68,119,1)" d="M1909.5,910l1,2Z" fill="#414477"/>
      <path id="rgba_65_68_119_1_21" data-name="rgba(65,68,119,1)" d="M967.5,919l1,2Z" fill="#414477"/>
      <path id="rgba_65_68_119_1_22" data-name="rgba(65,68,119,1)" d="M623.5,936l-1,2Z" fill="#414477"/>
      <path id="rgba_65_68_119_1_23" data-name="rgba(65,68,119,1)" d="M1346.5,958l3,4Z" fill="#414477"/>
      <path id="rgba_66_68_119_1_" data-name="rgba(66,68,119,1)" d="M0,0H1920V771H0Z" fill="#424477"/>
      <path id="rgba_66_68_119_1_2" data-name="rgba(66,68,119,1)" d="M1721.5,821l23,1,1,1,21,2,24,6,23,8q53.5,23,89.5,63.5l17,21V1080H.5l-.5-.5V968q2.7,1.1,2-1.5Q29.2,936.2,68.5,918l18-7,23-6,19-2,1-1h17l3-1,1,1h18l1,1,18,2,29,8,12,5q36,16,61,43,32.9-27.6,77-44l19-6,27-6,12-1,1-1h9l1-1h22l3-1,1,1,31,1,41,8a294.232,294.232,0,0,1,45,17l25,14,8,6h2l28-30q31.3-28.7,74-46l20-7,25-6h6l8-2h9l1-1h18l3-1,1,1,28,1,23,4,40,13a244.227,244.227,0,0,1,45,25l35,29,35-19,45-16,39-8h9l11-2h23l3-1,1,1,34,1,1,1h8l12,3h5l29,7,23,8a287.634,287.634,0,0,1,51,25,269.278,269.278,0,0,1,49,39h2l28-10,23-4h17l3-1,1,1h16l1,1h7l16,3,29,10q23.1-50.9,63-85l32-24,40-20a233.542,233.542,0,0,1,45-13l21-2,1-1h20Z" fill="#424477"/>
      <path id="rgba_52_53_94_1_" data-name="rgba(52,53,94,1)" d="M0,881l693,.5a238.746,238.746,0,0,0-69,53L613.5,947l-4-1a177,177,0,0,0-38-22l-39-14-22-5-18-2-1-1h-9l-1-1h-44l-1,1h-9l-1,1-24,3-38,11q-42.9,16.1-75,43-28.7-30.3-71-47l-19-6-24-5h-8l-1-1h-35l-1,1-15,1-22,5-29,11A204.5,204.5,0,0,0,2,965.5L.5,968Z" fill="#34355e"/>
      <path id="rgba_52_53_94_1_2" data-name="rgba(52,53,94,1)" d="M915.5,881l645.5.5-14,13a233.163,233.163,0,0,0-48,71.5l-16.5-6-20-5h-5l-7-2h-8l-1-1h-27l-1,1h-9l-1,1-12,1-36,11a277.991,277.991,0,0,0-51-40l-30-16-27-11-31-9-31-6-20-1-1-1h-48l-1,1h-9l-1,1-21,2-40,10-36,14-32,17-27-24a181.83,181.83,0,0,0-34-21Z" fill="#34355e"/>
      <path id="rgba_52_53_94_1_3" data-name="rgba(52,53,94,1)" d="M1883.5,881H1920v40.5l-3-2-12-16Z" fill="#34355e"/>
      <path id="rgba_58_59_105_1_" data-name="rgba(58,59,105,1)" d="M0,823l1684,.5q-51.2,8.8-87.5,32.5l-1-1h-770l-4,1-1-1h-31l-4,1-1-1H0Z" fill="#3a3b69"/>
      <path id="rgba_58_59_105_1_2" data-name="rgba(58,59,105,1)" d="M1761.5,823h158l.5.5V855h-74.5l-38-19-21-7-25-5Z" fill="#3a3b69"/>
      <path id="rgba_58_59_105_1_3" data-name="rgba(58,59,105,1)" d="M774.5,856l2.5.5-2.5.5Z" fill="#3a3b69"/>
      <path id="rgba_58_59_105_1_4" data-name="rgba(58,59,105,1)" d="M832.5,856l2.5.5-2.5.5Z" fill="#3a3b69"/>
      <path id="rgba_58_59_105_1_5" data-name="rgba(58,59,105,1)" d="M760.5,858l2.5.5-2.5.5Z" fill="#3a3b69"/>
      <path id="rgba_58_59_105_1_6" data-name="rgba(58,59,105,1)" d="M1853.5,859l1,2Z" fill="#3a3b69"/>
      <path id="rgba_58_59_105_1_7" data-name="rgba(58,59,105,1)" d="M1856.5,861l1,2Z" fill="#3a3b69"/>
      <path id="rgba_58_59_105_1_8" data-name="rgba(58,59,105,1)" d="M1859.5,863l1,2Z" fill="#3a3b69"/>
      <path id="rgba_58_59_105_1_9" data-name="rgba(58,59,105,1)" d="M1871.5,872l1,2Z" fill="#3a3b69"/>
      <path id="rgba_58_59_105_1_10" data-name="rgba(58,59,105,1)" d="M1568.5,875l-1,2Z" fill="#3a3b69"/>
      <path id="rgba_58_59_105_1_11" data-name="rgba(58,59,105,1)" d="M1877.5,877l1,2Z" fill="#3a3b69"/>
      <path id="rgba_58_59_105_1_12" data-name="rgba(58,59,105,1)" d="M1119.5,882l6.5.5-6.5.5Z" fill="#3a3b69"/>
      <path id="rgba_58_59_105_1_13" data-name="rgba(58,59,105,1)" d="M1157.5,882l3.5.5-3.5.5Z" fill="#3a3b69"/>
      <path id="rgba_58_59_105_1_14" data-name="rgba(58,59,105,1)" d="M1560.5,882l-1,2Z" fill="#3a3b69"/>
      <path id="rgba_58_59_105_1_15" data-name="rgba(58,59,105,1)" d="M1108.5,883l2.5.5-2.5.5Z" fill="#3a3b69"/>
      <path id="rgba_58_59_105_1_16" data-name="rgba(58,59,105,1)" d="M1172.5,883l2.5.5-2.5.5Z" fill="#3a3b69"/>
      <path id="rgba_58_59_105_1_17" data-name="rgba(58,59,105,1)" d="M1886.5,885l2,3Z" fill="#3a3b69"/>
      <path id="rgba_58_59_105_1_18" data-name="rgba(58,59,105,1)" d="M1900.5,899l1,2Z" fill="#3a3b69"/>
      <path id="rgba_58_59_105_1_19" data-name="rgba(58,59,105,1)" d="M133.5,901l2.5.5-2.5.5Z" fill="#3a3b69"/>
      <path id="rgba_58_59_105_1_20" data-name="rgba(58,59,105,1)" d="M161.5,901l2.5.5-2.5.5Z" fill="#3a3b69"/>
      <path id="rgba_58_59_105_1_21" data-name="rgba(58,59,105,1)" d="M441.5,901l3.5.5-3.5.5Z" fill="#3a3b69"/>
      <path id="rgba_58_59_105_1_22" data-name="rgba(58,59,105,1)" d="M474.5,901l4.5.5-4.5.5Z" fill="#3a3b69"/>
      <path id="rgba_58_59_105_1_23" data-name="rgba(58,59,105,1)" d="M1540.5,902l-1,2Z" fill="#3a3b69"/>
      <path id="rgba_58_59_105_1_24" data-name="rgba(58,59,105,1)" d="M950.5,904l1,2Z" fill="#3a3b69"/>
      <path id="rgba_58_59_105_1_25" data-name="rgba(58,59,105,1)" d="M647.5,912l-1,2Z" fill="#3a3b69"/>
      <path id="rgba_58_59_105_1_26" data-name="rgba(58,59,105,1)" d="M962.5,914l1,2Z" fill="#3a3b69"/>
      <path id="rgba_58_59_105_1_27" data-name="rgba(58,59,105,1)" d="M638.5,920l-3,4Z" fill="#3a3b69"/>
      <path id="rgba_58_59_105_1_28" data-name="rgba(58,59,105,1)" d="M974.5,925l3.5,2.5-1.5.5Z" fill="#3a3b69"/>
      <path id="rgba_58_59_105_1_29" data-name="rgba(58,59,105,1)" d="M628.5,930l-2,3Z" fill="#3a3b69"/>
      <path id="rgba_58_59_105_1_30" data-name="rgba(58,59,105,1)" d="M614.5,946l-1,2Z" fill="#3a3b69"/>
      <path id="rgba_58_59_105_1_31" data-name="rgba(58,59,105,1)" d="M16.5,951l-1,2Z" fill="#3a3b69"/>
      <path id="rgba_58_59_105_1_32" data-name="rgba(58,59,105,1)" d="M1415.5,952l2.5.5-2.5.5Z" fill="#3a3b69"/>
      <path id="rgba_58_59_105_1_33" data-name="rgba(58,59,105,1)" d="M285.5,956l1,2Z" fill="#3a3b69"/>
      <path id="rgba_58_59_105_1_34" data-name="rgba(58,59,105,1)" d="M4.5,963l-1,2Z" fill="#3a3b69"/>
      <path id="rgba_58_59_105_1_35" data-name="rgba(58,59,105,1)" d="M1354.5,965l1,2Z" fill="#3a3b69"/>
      <path id="rgba_56_57_101_1_" data-name="rgba(56,57,101,1)" d="M0,855l785,.5L760.5,858l-21,5-31,11-15,8-1-1H0Z" fill="#383965"/>
      <path id="rgba_56_57_101_1_2" data-name="rgba(56,57,101,1)" d="M825.5,855l770.5.5L1568.5,875l-7,7-1-1h-647l-24-11-24-8-24-5-16-1Z" fill="#383965"/>
      <path id="rgba_56_57_101_1_3" data-name="rgba(56,57,101,1)" d="M1847.5,855H1920v26l-37,.5,2.5,3.5-14-13-24-16Z" fill="#383965"/>
      <path id="rgba_56_57_101_1_4" data-name="rgba(56,57,101,1)" d="M1116.5,882l2.5.5-2.5.5Z" fill="#383965"/>
      <path id="rgba_56_57_101_1_5" data-name="rgba(56,57,101,1)" d="M1161.5,882l3.5.5-3.5.5Z" fill="#383965"/>
      <path id="rgba_56_57_101_1_6" data-name="rgba(56,57,101,1)" d="M1555.5,886l-8,9Z" fill="#383965"/>
      <path id="rgba_56_57_101_1_7" data-name="rgba(56,57,101,1)" d="M164.5,901l2.5.5-2.5.5Z" fill="#383965"/>
      <path id="rgba_56_57_101_1_8" data-name="rgba(56,57,101,1)" d="M437.5,901l3.5.5-3.5.5Z" fill="#383965"/>
      <path id="rgba_56_57_101_1_9" data-name="rgba(56,57,101,1)" d="M479.5,901l2.5.5-2.5.5Z" fill="#383965"/>
      <path id="rgba_56_57_101_1_10" data-name="rgba(56,57,101,1)" d="M1902.5,901l2,3Z" fill="#383965"/>
      <path id="rgba_56_57_101_1_11" data-name="rgba(56,57,101,1)" d="M1538.5,904l-1,2Z" fill="#383965"/>
      <path id="rgba_56_57_101_1_12" data-name="rgba(56,57,101,1)" d="M954.5,907l1,2Z" fill="#383965"/>
      <path id="rgba_56_57_101_1_13" data-name="rgba(56,57,101,1)" d="M649.5,910l-1,2Z" fill="#383965"/>
      <path id="rgba_56_57_101_1_14" data-name="rgba(56,57,101,1)" d="M960.5,912l1,2Z" fill="#383965"/>
      <path id="rgba_56_57_101_1_15" data-name="rgba(56,57,101,1)" d="M641.5,917l-2,3Z" fill="#383965"/>
      <path id="rgba_56_57_101_1_16" data-name="rgba(56,57,101,1)" d="M969.5,920l4,5Z" fill="#383965"/>
      <path id="rgba_56_57_101_1_17" data-name="rgba(56,57,101,1)" d="M625.5,933l-1,2Z" fill="#383965"/>
      <path id="rgba_56_57_101_1_18" data-name="rgba(56,57,101,1)" d="M1439.5,952l2.5.5-2.5.5Z" fill="#383965"/>
      <path id="rgba_56_57_101_1_19" data-name="rgba(56,57,101,1)" d="M282.5,953l2,3Z" fill="#383965"/>
      <path id="rgba_56_57_101_1_20" data-name="rgba(56,57,101,1)" d="M1352.5,963l1,2Z" fill="#383965"/>
      <g id="Sizing_Rectangle-2" data-name="Sizing Rectangle" fill="rgba(0,0,0,0)" stroke="rgba(0,0,0,0)" stroke-width="1">
        <rect width="1920" height="1080" stroke="none"/>
        <rect x="0.5" y="0.5" width="1919" height="1079" fill="none"/>
      </g>
    </g>
    <g id="Union_4" data-name="Union 4" transform="translate(1355 -1458)" fill="url(#radial-gradient-2)">
      <path d="M 219.14599609375 2040.499389648438 C 204.5282745361328 2040.499389648438 189.9199066162109 2039.216918945313 175.7267303466797 2036.687622070313 C 161.8950958251953 2034.222900390625 148.2900085449219 2030.545043945313 135.2893676757813 2025.75634765625 C 122.5257263183594 2021.054931640625 110.2153625488281 2015.236083984375 98.70027160644531 2008.461181640625 C 87.29563903808594 2001.751342773438 76.57154846191406 1994.0458984375 66.82591247558594 1985.558715820313 C 57.08145523071289 1977.072631835938 48.23490905761719 1967.7353515625 40.5320930480957 1957.805908203125 C 32.75663757324219 1947.782958984375 26.07845497131348 1937.068237304688 20.68318367004395 1925.959594726563 C 15.18891048431396 1914.647094726563 10.96918296813965 1902.80908203125 8.141365051269531 1890.774169921875 C 5.240001201629639 1878.42626953125 3.768819570541382 1865.717163085938 3.768819570541382 1853.000122070313 C 3.768819570541382 1832.519897460938 7.53900146484375 1812.384399414063 14.97463798522949 1793.152954101563 C 22.16554641723633 1774.554443359375 32.65572738647461 1757.104248046875 46.15391159057617 1741.287353515625 L 46.54818344116211 1740.825317382813 L 46.01900100708008 1740.527099609375 C 31.2475471496582 1732.204711914063 17.65072822570801 1722.3046875 5.606183052062988 1711.102172851563 C -6.461816787719727 1699.877807617188 -16.92081642150879 1687.392700195313 -25.48036193847656 1673.993408203125 C -34.1866340637207 1660.364501953125 -40.90409088134766 1645.82275390625 -45.44618225097656 1630.771850585938 C -50.12681579589844 1615.262084960938 -52.50008773803711 1599.189453125 -52.50008773803711 1583.000122070313 C -52.50008773803711 1570.283081054688 -51.02890777587891 1557.573974609375 -48.1274528503418 1545.225952148438 C -45.29963684082031 1533.191162109375 -41.07990646362305 1521.353149414063 -35.58554458618164 1510.04052734375 C -30.19027137756348 1498.931884765625 -23.51208877563477 1488.217163085938 -15.73654460906982 1478.193969726563 C -8.033635139465332 1468.2646484375 0.8129103779792786 1458.92724609375 10.55736446380615 1450.441162109375 C 20.30309295654297 1441.953979492188 31.02718353271484 1434.248291015625 42.43181991577148 1427.538452148438 C 53.9469108581543 1420.763671875 66.25718688964844 1414.944702148438 79.02091217041016 1410.2431640625 C 92.02145385742188 1405.454467773438 105.6265487670898 1401.776611328125 119.4580917358398 1399.311767578125 C 133.6511840820313 1396.782470703125 148.2594604492188 1395.5 162.8770904541016 1395.5 C 178.1195526123047 1395.5 193.3319091796875 1396.892456054688 208.091552734375 1399.638793945313 L 208.4427337646484 1399.7041015625 L 208.6183624267578 1399.39306640625 C 217.3287353515625 1383.966918945313 228.4555511474609 1369.636840820313 241.6900024414063 1356.800659179688 C 254.8766326904297 1344.010864257813 269.9950866699219 1332.85888671875 286.6252746582031 1323.654541015625 C 303.5128173828125 1314.307739257813 321.7760925292969 1307.07421875 340.9076232910156 1302.154907226563 C 360.6615600585938 1297.07568359375 381.22216796875 1294.500244140625 402.0182800292969 1294.500244140625 C 416.6359252929688 1294.500244140625 431.2441711425781 1295.78271484375 445.4372863769531 1298.311889648438 C 459.2689208984375 1300.776733398438 472.8739929199219 1304.45458984375 485.8745422363281 1309.243286132813 C 498.6382751464844 1313.944702148438 510.9486389160156 1319.763671875 522.4637451171875 1326.538452148438 C 533.8682861328125 1333.248291015625 544.5923461914063 1340.953735351563 554.3380737304688 1349.44091796875 C 564.0826416015625 1357.927124023438 572.92919921875 1367.264526367188 580.6320190429688 1377.19384765625 C 588.4075317382813 1387.216918945313 595.0857543945313 1397.931640625 600.4810791015625 1409.040405273438 C 605.975341796875 1420.352905273438 610.195068359375 1432.191162109375 613.0228881835938 1444.225952148438 C 615.9243774414063 1456.573974609375 617.3955688476563 1469.283203125 617.3955688476563 1482.000366210938 C 617.3955688476563 1489.999633789063 616.8110961914063 1498.050415039063 615.658447265625 1505.929077148438 L 615.6478271484375 1506.001342773438 L 615.658447265625 1506.07373046875 C 616.8110961914063 1513.951782226563 617.3955688476563 1522.001708984375 617.3955688476563 1530 C 617.3955688476563 1552.437866210938 612.8912963867188 1574.381958007813 604.0078125 1595.222778320313 L 603.8612060546875 1595.56689453125 L 604.1498413085938 1595.8046875 C 614.5191040039063 1604.349731445313 623.9481811523438 1613.824951171875 632.1749877929688 1623.967163085938 C 640.4737548828125 1634.197875976563 647.6088256835938 1645.181518554688 653.382080078125 1656.613159179688 C 659.2615356445313 1668.255004882813 663.779541015625 1680.464477539063 666.810546875 1692.902587890625 C 669.9225463867188 1705.6728515625 671.5004272460938 1718.826904296875 671.5004272460938 1731.999633789063 C 671.5004272460938 1739.997802734375 670.9158935546875 1748.048583984375 669.7630004882813 1755.928344726563 L 669.7523803710938 1756.000732421875 L 669.7630004882813 1756.073120117188 C 670.9158935546875 1763.952392578125 671.5004272460938 1772.00244140625 671.5004272460938 1779.999389648438 C 671.5004272460938 1792.716552734375 670.029296875 1805.425659179688 667.1278076171875 1817.773803710938 C 664.2999877929688 1829.80859375 660.0802612304688 1841.646728515625 654.5859375 1852.959350585938 C 649.1906127929688 1864.067993164063 642.512451171875 1874.78271484375 634.7369384765625 1884.805786132813 C 627.0339965820313 1894.735107421875 618.1874389648438 1904.072631835938 608.4429931640625 1912.558715820313 C 598.697265625 1921.0458984375 587.9732055664063 1928.751342773438 576.5685424804688 1935.461181640625 C 565.0535278320313 1942.235961914063 552.7431640625 1948.054931640625 539.9794311523438 1952.75634765625 C 526.9788818359375 1957.545043945313 513.3739013671875 1961.222900390625 499.5422668457031 1963.687622070313 C 485.3491821289063 1966.216918945313 470.7409057617188 1967.499389648438 456.1232604980469 1967.499389648438 C 435.7714538574219 1967.499389648438 415.6347351074219 1965.03173828125 396.2726440429688 1960.165161132813 L 395.9617309570313 1960.0869140625 L 395.7609252929688 1960.336791992188 C 386.0553588867188 1972.417846679688 374.7043762207031 1983.509521484375 362.0233764648438 1993.304077148438 C 349.2936401367188 2003.13623046875 335.2459106445313 2011.643310546875 320.2705383300781 2018.588989257813 C 305.0281066894531 2025.65869140625 288.8242797851563 2031.10888671875 272.1091003417969 2034.788208007813 C 254.8929138183594 2038.577880859375 237.0735473632813 2040.499389648438 219.14599609375 2040.499389648438 Z" stroke="none"/>
      <path d="M 219.1459808349609 2039.999389648438 C 237.0373840332031 2039.999389648438 254.8205871582031 2038.081787109375 272.0015869140625 2034.2998046875 C 288.681396484375 2030.628295898438 304.8505859375 2025.189819335938 320.0601806640625 2018.135498046875 C 335.0017700195313 2011.205322265625 349.0173950195313 2002.7177734375 361.7176818847656 1992.908447265625 C 374.3675842285156 1983.137939453125 385.690185546875 1972.073974609375 395.37109375 1960.023803710938 L 395.7726745605469 1959.52392578125 L 396.3944702148438 1959.680297851563 C 415.7168884277344 1964.536865234375 435.8125915527344 1966.999389648438 456.123291015625 1966.999389648438 C 470.7115783691406 1966.999389648438 485.290283203125 1965.719604492188 499.45458984375 1963.1953125 C 513.2572631835938 1960.735595703125 526.8336791992188 1957.065673828125 539.8067016601563 1952.287109375 C 552.54248046875 1947.595947265625 564.82568359375 1941.789916992188 576.3150634765625 1935.030151367188 C 587.6931762695313 1928.3359375 598.39208984375 1920.648559570313 608.1146850585938 1912.181518554688 C 617.8347778320313 1903.716796875 626.6588745117188 1894.403076171875 634.3418579101563 1884.499267578125 C 642.0963134765625 1874.503540039063 648.7559814453125 1863.818481445313 654.1361694335938 1852.740844726563 C 659.614501953125 1841.46142578125 663.8216552734375 1829.658203125 666.64111328125 1817.659301757813 C 669.5338134765625 1805.348754882813 671.00048828125 1792.678100585938 671.00048828125 1779.999389648438 C 671.00048828125 1772.027221679688 670.4176635742188 1764.001708984375 669.268310546875 1756.1455078125 L 669.2471923828125 1756.000732421875 L 669.268310546875 1755.85595703125 C 670.4176635742188 1748 671.00048828125 1739.9736328125 671.00048828125 1731.999633789063 C 671.00048828125 1718.866821289063 669.4273681640625 1705.75244140625 666.3247680664063 1693.02099609375 C 663.3027954101563 1680.619995117188 658.798095703125 1668.446411132813 652.935791015625 1656.838500976563 C 647.1785888671875 1645.438720703125 640.06298828125 1634.485107421875 631.7866821289063 1624.282104492188 C 623.580810546875 1614.165771484375 614.1753540039063 1604.714477539063 603.831787109375 1596.190551757813 L 603.2545776367188 1595.71484375 L 603.5479125976563 1595.026733398438 C 612.40478515625 1574.248168945313 616.8955688476563 1552.369995117188 616.8955688476563 1530 C 616.8955688476563 1522.026123046875 616.3128662109375 1514.00048828125 615.1636962890625 1506.146118164063 L 615.142578125 1506.001342773438 L 615.1636962890625 1505.856567382813 C 616.3128662109375 1498.001708984375 616.8955688476563 1489.975341796875 616.8955688476563 1482.000366210938 C 616.8955688476563 1469.321655273438 615.4288940429688 1456.651000976563 612.5361938476563 1444.34033203125 C 609.716796875 1432.34130859375 605.5095825195313 1420.538208007813 600.0313110351563 1409.258911132813 C 594.6510620117188 1398.181274414063 587.9913940429688 1387.496215820313 580.2369995117188 1377.500366210938 C 572.553955078125 1367.596557617188 563.7298583984375 1358.282958984375 554.009765625 1349.818115234375 C 544.2871704101563 1341.35107421875 533.5882568359375 1333.663696289063 522.210205078125 1326.969482421875 C 510.7206726074219 1320.209716796875 498.4374694824219 1314.403686523438 485.7016906738281 1309.71240234375 C 472.7286682128906 1304.933959960938 459.1522827148438 1301.263916015625 445.3495788574219 1298.80419921875 C 431.1853942871094 1296.280029296875 416.6065979003906 1295.000244140625 402.0182800292969 1295.000244140625 C 381.2641906738281 1295.000244140625 360.7454833984375 1297.5703125 341.0321960449219 1302.639282226563 C 321.9415893554688 1307.547973632813 303.7178955078125 1314.765625 286.8673706054688 1324.091918945313 C 270.2757873535156 1333.27490234375 255.1930847167969 1344.400512695313 242.0381774902344 1357.159545898438 C 228.8380889892578 1369.96240234375 217.740478515625 1384.254516601563 209.0537872314453 1399.638916015625 L 208.7024841308594 1400.261108398438 L 208.0000762939453 1400.13037109375 C 193.2708892822266 1397.3896484375 178.0892791748047 1396 162.8770904541016 1396 C 148.2887878417969 1396 133.7100830078125 1397.279907226563 119.545783996582 1399.804077148438 C 105.7430801391602 1402.263793945313 92.16667938232422 1405.933837890625 79.19367980957031 1410.71240234375 C 66.45798492431641 1415.403564453125 54.17478179931641 1421.209716796875 42.68528366088867 1427.969482421875 C 31.30718231201172 1434.663696289063 20.60828399658203 1442.351196289063 10.88568305969238 1450.818115234375 C 1.16558313369751 1459.283081054688 -7.658516883850098 1468.596801757813 -15.34151649475098 1478.500610351563 C -23.09591674804688 1488.496337890625 -29.75561714172363 1499.181396484375 -35.13581848144531 1510.258911132813 C -40.61411666870117 1521.538452148438 -44.82131576538086 1533.341430664063 -47.64071655273438 1545.34033203125 C -50.53341674804688 1557.651000976563 -52.00011825561523 1570.321533203125 -52.00011825561523 1583.000122070313 C -52.00011825561523 1599.140502929688 -49.63401794433594 1615.16455078125 -44.9675178527832 1630.62744140625 C -40.43871688842773 1645.63427734375 -33.74051666259766 1660.134155273438 -25.05901718139648 1673.724243164063 C -16.522216796875 1687.087890625 -6.090316772460938 1699.540405273438 5.946682929992676 1710.735961914063 C 17.96248245239258 1721.911743164063 31.52728271484375 1731.788330078125 46.26448440551758 1740.091552734375 L 47.32288360595703 1740.687866210938 L 46.53428268432617 1741.61181640625 C 33.07278442382813 1757.385864257813 22.61148262023926 1774.787353515625 15.44098281860352 1793.333251953125 C 8.027683258056641 1812.506958007813 4.268783092498779 1832.581909179688 4.268783092498779 1853.000122070313 C 4.268783092498779 1865.6787109375 5.735483169555664 1878.349365234375 8.628083229064941 1890.659912109375 C 11.44748306274414 1902.658813476563 15.65468311309814 1914.4619140625 21.13288307189941 1925.7412109375 C 26.51308250427246 1936.818725585938 33.17278289794922 1947.503784179688 40.92718124389648 1957.49951171875 C 48.61008453369141 1967.403198242188 57.43418121337891 1976.716796875 67.15418243408203 1985.181640625 C 76.87678527832031 1993.648681640625 87.57568359375 2001.336059570313 98.95378112792969 2008.0302734375 C 110.4431838989258 2014.789916992188 122.7263793945313 2020.595947265625 135.4621887207031 2025.287109375 C 148.4351806640625 2030.065673828125 162.0116882324219 2033.735717773438 175.8143768310547 2036.1953125 C 189.9786834716797 2038.719604492188 204.5575866699219 2039.999389648438 219.1459808349609 2039.999389648438 M 219.1459808349609 2040.999389648438 C 99.91958618164063 2040.999389648438 3.268783092498779 1956.82958984375 3.268783092498779 1853.000122070313 C 3.268783092498779 1811.021850585938 19.07248306274414 1772.250732421875 45.77358245849609 1740.962768554688 C -13.66241645812988 1707.475463867188 -53.00011825561523 1649.237060546875 -53.00011825561523 1583.000122070313 C -53.00011825561523 1479.170776367188 43.65168380737305 1395 162.8770904541016 1395 C 178.4211883544922 1395 193.5708770751953 1396.428344726563 208.1829833984375 1399.147216796875 C 243.3517761230469 1336.86279296875 316.9361877441406 1294.000244140625 402.0182800292969 1294.000244140625 C 521.2437744140625 1294.000244140625 617.8955688476563 1378.170043945313 617.8955688476563 1482.000366210938 C 617.8955688476563 1490.132446289063 617.3031005859375 1498.1416015625 616.1531982421875 1506.001342773438 C 617.302978515625 1513.859985351563 617.8955688476563 1521.869262695313 617.8955688476563 1530 C 617.8955688476563 1553.006958007813 613.152099609375 1575.045166015625 604.4677734375 1595.418823242188 C 646.0526123046875 1629.687622070313 672.00048828125 1678.206909179688 672.00048828125 1731.999633789063 C 672.00048828125 1740.13037109375 671.4075927734375 1748.141967773438 670.2578125 1756.000732421875 C 671.4074096679688 1763.8583984375 672.00048828125 1771.869750976563 672.00048828125 1779.999389648438 C 672.00048828125 1883.82958984375 575.3486938476563 1967.999389648438 456.123291015625 1967.999389648438 C 435.3114929199219 1967.999389648438 415.1929931640625 1965.436279296875 396.1506958007813 1960.650024414063 C 357.1214904785156 2009.231201171875 292.3953857421875 2040.999389648438 219.1459808349609 2040.999389648438 Z" stroke="none" fill="#707070"/>
    </g>
    <g id="Union_7" data-name="Union 7" transform="translate(-1189.541 -871.85) rotate(-34)" fill="url(#radial-gradient-2)">
      <path d="M 219.14599609375 2040.499389648438 C 204.5282745361328 2040.499389648438 189.9199066162109 2039.216918945313 175.7267303466797 2036.687622070313 C 161.8950958251953 2034.222900390625 148.2900085449219 2030.545043945313 135.2893676757813 2025.75634765625 C 122.5257263183594 2021.054931640625 110.2153625488281 2015.236083984375 98.70027160644531 2008.461181640625 C 87.29563903808594 2001.751342773438 76.57154846191406 1994.0458984375 66.82591247558594 1985.558715820313 C 57.08145523071289 1977.072631835938 48.23490905761719 1967.7353515625 40.5320930480957 1957.805908203125 C 32.75663757324219 1947.782958984375 26.07845497131348 1937.068237304688 20.68318367004395 1925.959594726563 C 15.18891048431396 1914.647094726563 10.96918296813965 1902.80908203125 8.141365051269531 1890.774169921875 C 5.240001201629639 1878.42626953125 3.768819570541382 1865.717163085938 3.768819570541382 1853.000122070313 C 3.768819570541382 1832.519897460938 7.53900146484375 1812.384399414063 14.97463798522949 1793.152954101563 C 22.16554641723633 1774.554443359375 32.65572738647461 1757.104248046875 46.15391159057617 1741.287353515625 L 46.54818344116211 1740.825317382813 L 46.01900100708008 1740.527099609375 C 31.2475471496582 1732.204711914063 17.65072822570801 1722.3046875 5.606183052062988 1711.102172851563 C -6.461816787719727 1699.877807617188 -16.92081642150879 1687.392700195313 -25.48036193847656 1673.993408203125 C -34.1866340637207 1660.364501953125 -40.90409088134766 1645.82275390625 -45.44618225097656 1630.771850585938 C -50.12681579589844 1615.262084960938 -52.50008773803711 1599.189453125 -52.50008773803711 1583.000122070313 C -52.50008773803711 1570.283081054688 -51.02890777587891 1557.573974609375 -48.1274528503418 1545.225952148438 C -45.29963684082031 1533.191162109375 -41.07990646362305 1521.353149414063 -35.58554458618164 1510.04052734375 C -30.19027137756348 1498.931884765625 -23.51208877563477 1488.217163085938 -15.73654460906982 1478.193969726563 C -8.033635139465332 1468.2646484375 0.8129103779792786 1458.92724609375 10.55736446380615 1450.441162109375 C 20.30309295654297 1441.953979492188 31.02718353271484 1434.248291015625 42.43181991577148 1427.538452148438 C 53.9469108581543 1420.763671875 66.25718688964844 1414.944702148438 79.02091217041016 1410.2431640625 C 92.02145385742188 1405.454467773438 105.6265487670898 1401.776611328125 119.4580917358398 1399.311767578125 C 133.6511840820313 1396.782470703125 148.2594604492188 1395.5 162.8770904541016 1395.5 C 178.1195526123047 1395.5 193.3319091796875 1396.892456054688 208.091552734375 1399.638793945313 L 208.4427337646484 1399.7041015625 L 208.6183624267578 1399.39306640625 C 217.3287353515625 1383.966918945313 228.4555511474609 1369.636840820313 241.6900024414063 1356.800659179688 C 254.8766326904297 1344.010864257813 269.9950866699219 1332.85888671875 286.6252746582031 1323.654541015625 C 303.5128173828125 1314.307739257813 321.7760925292969 1307.07421875 340.9076232910156 1302.154907226563 C 360.6615600585938 1297.07568359375 381.22216796875 1294.500244140625 402.0182800292969 1294.500244140625 C 416.6359252929688 1294.500244140625 431.2441711425781 1295.78271484375 445.4372863769531 1298.311889648438 C 459.2689208984375 1300.776733398438 472.8739929199219 1304.45458984375 485.8745422363281 1309.243286132813 C 498.6382751464844 1313.944702148438 510.9486389160156 1319.763671875 522.4637451171875 1326.538452148438 C 533.8682861328125 1333.248291015625 544.5923461914063 1340.953735351563 554.3380737304688 1349.44091796875 C 564.0826416015625 1357.927124023438 572.92919921875 1367.264526367188 580.6320190429688 1377.19384765625 C 588.4075317382813 1387.216918945313 595.0857543945313 1397.931640625 600.4810791015625 1409.040405273438 C 605.975341796875 1420.352905273438 610.195068359375 1432.191162109375 613.0228881835938 1444.225952148438 C 615.9243774414063 1456.573974609375 617.3955688476563 1469.283203125 617.3955688476563 1482.000366210938 C 617.3955688476563 1489.999633789063 616.8110961914063 1498.050415039063 615.658447265625 1505.929077148438 L 615.6478271484375 1506.001342773438 L 615.658447265625 1506.07373046875 C 616.8110961914063 1513.951782226563 617.3955688476563 1522.001708984375 617.3955688476563 1530 C 617.3955688476563 1552.437866210938 612.8912963867188 1574.381958007813 604.0078125 1595.222778320313 L 603.8612060546875 1595.56689453125 L 604.1498413085938 1595.8046875 C 614.5191040039063 1604.349731445313 623.9481811523438 1613.824951171875 632.1749877929688 1623.967163085938 C 640.4737548828125 1634.197875976563 647.6088256835938 1645.181518554688 653.382080078125 1656.613159179688 C 659.2615356445313 1668.255004882813 663.779541015625 1680.464477539063 666.810546875 1692.902587890625 C 669.9225463867188 1705.6728515625 671.5004272460938 1718.826904296875 671.5004272460938 1731.999633789063 C 671.5004272460938 1739.997802734375 670.9158935546875 1748.048583984375 669.7630004882813 1755.928344726563 L 669.7523803710938 1756.000732421875 L 669.7630004882813 1756.073120117188 C 670.9158935546875 1763.952392578125 671.5004272460938 1772.00244140625 671.5004272460938 1779.999389648438 C 671.5004272460938 1792.716552734375 670.029296875 1805.425659179688 667.1278076171875 1817.773803710938 C 664.2999877929688 1829.80859375 660.0802612304688 1841.646728515625 654.5859375 1852.959350585938 C 649.1906127929688 1864.067993164063 642.512451171875 1874.78271484375 634.7369384765625 1884.805786132813 C 627.0339965820313 1894.735107421875 618.1874389648438 1904.072631835938 608.4429931640625 1912.558715820313 C 598.697265625 1921.0458984375 587.9732055664063 1928.751342773438 576.5685424804688 1935.461181640625 C 565.0535278320313 1942.235961914063 552.7431640625 1948.054931640625 539.9794311523438 1952.75634765625 C 526.9788818359375 1957.545043945313 513.3739013671875 1961.222900390625 499.5422668457031 1963.687622070313 C 485.3491821289063 1966.216918945313 470.7409057617188 1967.499389648438 456.1232604980469 1967.499389648438 C 435.7714538574219 1967.499389648438 415.6347351074219 1965.03173828125 396.2726440429688 1960.165161132813 L 395.9617309570313 1960.0869140625 L 395.7609252929688 1960.336791992188 C 386.0553588867188 1972.417846679688 374.7043762207031 1983.509521484375 362.0233764648438 1993.304077148438 C 349.2936401367188 2003.13623046875 335.2459106445313 2011.643310546875 320.2705383300781 2018.588989257813 C 305.0281066894531 2025.65869140625 288.8242797851563 2031.10888671875 272.1091003417969 2034.788208007813 C 254.8929138183594 2038.577880859375 237.0735473632813 2040.499389648438 219.14599609375 2040.499389648438 Z" stroke="none"/>
      <path d="M 219.1459808349609 2039.999389648438 C 237.0373840332031 2039.999389648438 254.8205871582031 2038.081787109375 272.0015869140625 2034.2998046875 C 288.681396484375 2030.628295898438 304.8505859375 2025.189819335938 320.0601806640625 2018.135498046875 C 335.0017700195313 2011.205322265625 349.0173950195313 2002.7177734375 361.7176818847656 1992.908447265625 C 374.3675842285156 1983.137939453125 385.690185546875 1972.073974609375 395.37109375 1960.023803710938 L 395.7726745605469 1959.52392578125 L 396.3944702148438 1959.680297851563 C 415.7168884277344 1964.536865234375 435.8125915527344 1966.999389648438 456.123291015625 1966.999389648438 C 470.7115783691406 1966.999389648438 485.290283203125 1965.719604492188 499.45458984375 1963.1953125 C 513.2572631835938 1960.735595703125 526.8336791992188 1957.065673828125 539.8067016601563 1952.287109375 C 552.54248046875 1947.595947265625 564.82568359375 1941.789916992188 576.3150634765625 1935.030151367188 C 587.6931762695313 1928.3359375 598.39208984375 1920.648559570313 608.1146850585938 1912.181518554688 C 617.8347778320313 1903.716796875 626.6588745117188 1894.403076171875 634.3418579101563 1884.499267578125 C 642.0963134765625 1874.503540039063 648.7559814453125 1863.818481445313 654.1361694335938 1852.740844726563 C 659.614501953125 1841.46142578125 663.8216552734375 1829.658203125 666.64111328125 1817.659301757813 C 669.5338134765625 1805.348754882813 671.00048828125 1792.678100585938 671.00048828125 1779.999389648438 C 671.00048828125 1772.027221679688 670.4176635742188 1764.001708984375 669.268310546875 1756.1455078125 L 669.2471923828125 1756.000732421875 L 669.268310546875 1755.85595703125 C 670.4176635742188 1748 671.00048828125 1739.9736328125 671.00048828125 1731.999633789063 C 671.00048828125 1718.866821289063 669.4273681640625 1705.75244140625 666.3247680664063 1693.02099609375 C 663.3027954101563 1680.619995117188 658.798095703125 1668.446411132813 652.935791015625 1656.838500976563 C 647.1785888671875 1645.438720703125 640.06298828125 1634.485107421875 631.7866821289063 1624.282104492188 C 623.580810546875 1614.165771484375 614.1753540039063 1604.714477539063 603.831787109375 1596.190551757813 L 603.2545776367188 1595.71484375 L 603.5479125976563 1595.026733398438 C 612.40478515625 1574.248168945313 616.8955688476563 1552.369995117188 616.8955688476563 1530 C 616.8955688476563 1522.026123046875 616.3128662109375 1514.00048828125 615.1636962890625 1506.146118164063 L 615.142578125 1506.001342773438 L 615.1636962890625 1505.856567382813 C 616.3128662109375 1498.001708984375 616.8955688476563 1489.975341796875 616.8955688476563 1482.000366210938 C 616.8955688476563 1469.321655273438 615.4288940429688 1456.651000976563 612.5361938476563 1444.34033203125 C 609.716796875 1432.34130859375 605.5095825195313 1420.538208007813 600.0313110351563 1409.258911132813 C 594.6510620117188 1398.181274414063 587.9913940429688 1387.496215820313 580.2369995117188 1377.500366210938 C 572.553955078125 1367.596557617188 563.7298583984375 1358.282958984375 554.009765625 1349.818115234375 C 544.2871704101563 1341.35107421875 533.5882568359375 1333.663696289063 522.210205078125 1326.969482421875 C 510.7206726074219 1320.209716796875 498.4374694824219 1314.403686523438 485.7016906738281 1309.71240234375 C 472.7286682128906 1304.933959960938 459.1522827148438 1301.263916015625 445.3495788574219 1298.80419921875 C 431.1853942871094 1296.280029296875 416.6065979003906 1295.000244140625 402.0182800292969 1295.000244140625 C 381.2641906738281 1295.000244140625 360.7454833984375 1297.5703125 341.0321960449219 1302.639282226563 C 321.9415893554688 1307.547973632813 303.7178955078125 1314.765625 286.8673706054688 1324.091918945313 C 270.2757873535156 1333.27490234375 255.1930847167969 1344.400512695313 242.0381774902344 1357.159545898438 C 228.8380889892578 1369.96240234375 217.740478515625 1384.254516601563 209.0537872314453 1399.638916015625 L 208.7024841308594 1400.261108398438 L 208.0000762939453 1400.13037109375 C 193.2708892822266 1397.3896484375 178.0892791748047 1396 162.8770904541016 1396 C 148.2887878417969 1396 133.7100830078125 1397.279907226563 119.545783996582 1399.804077148438 C 105.7430801391602 1402.263793945313 92.16667938232422 1405.933837890625 79.19367980957031 1410.71240234375 C 66.45798492431641 1415.403564453125 54.17478179931641 1421.209716796875 42.68528366088867 1427.969482421875 C 31.30718231201172 1434.663696289063 20.60828399658203 1442.351196289063 10.88568305969238 1450.818115234375 C 1.16558313369751 1459.283081054688 -7.658516883850098 1468.596801757813 -15.34151649475098 1478.500610351563 C -23.09591674804688 1488.496337890625 -29.75561714172363 1499.181396484375 -35.13581848144531 1510.258911132813 C -40.61411666870117 1521.538452148438 -44.82131576538086 1533.341430664063 -47.64071655273438 1545.34033203125 C -50.53341674804688 1557.651000976563 -52.00011825561523 1570.321533203125 -52.00011825561523 1583.000122070313 C -52.00011825561523 1599.140502929688 -49.63401794433594 1615.16455078125 -44.9675178527832 1630.62744140625 C -40.43871688842773 1645.63427734375 -33.74051666259766 1660.134155273438 -25.05901718139648 1673.724243164063 C -16.522216796875 1687.087890625 -6.090316772460938 1699.540405273438 5.946682929992676 1710.735961914063 C 17.96248245239258 1721.911743164063 31.52728271484375 1731.788330078125 46.26448440551758 1740.091552734375 L 47.32288360595703 1740.687866210938 L 46.53428268432617 1741.61181640625 C 33.07278442382813 1757.385864257813 22.61148262023926 1774.787353515625 15.44098281860352 1793.333251953125 C 8.027683258056641 1812.506958007813 4.268783092498779 1832.581909179688 4.268783092498779 1853.000122070313 C 4.268783092498779 1865.6787109375 5.735483169555664 1878.349365234375 8.628083229064941 1890.659912109375 C 11.44748306274414 1902.658813476563 15.65468311309814 1914.4619140625 21.13288307189941 1925.7412109375 C 26.51308250427246 1936.818725585938 33.17278289794922 1947.503784179688 40.92718124389648 1957.49951171875 C 48.61008453369141 1967.403198242188 57.43418121337891 1976.716796875 67.15418243408203 1985.181640625 C 76.87678527832031 1993.648681640625 87.57568359375 2001.336059570313 98.95378112792969 2008.0302734375 C 110.4431838989258 2014.789916992188 122.7263793945313 2020.595947265625 135.4621887207031 2025.287109375 C 148.4351806640625 2030.065673828125 162.0116882324219 2033.735717773438 175.8143768310547 2036.1953125 C 189.9786834716797 2038.719604492188 204.5575866699219 2039.999389648438 219.1459808349609 2039.999389648438 M 219.1459808349609 2040.999389648438 C 99.91958618164063 2040.999389648438 3.268783092498779 1956.82958984375 3.268783092498779 1853.000122070313 C 3.268783092498779 1811.021850585938 19.07248306274414 1772.250732421875 45.77358245849609 1740.962768554688 C -13.66241645812988 1707.475463867188 -53.00011825561523 1649.237060546875 -53.00011825561523 1583.000122070313 C -53.00011825561523 1479.170776367188 43.65168380737305 1395 162.8770904541016 1395 C 178.4211883544922 1395 193.5708770751953 1396.428344726563 208.1829833984375 1399.147216796875 C 243.3517761230469 1336.86279296875 316.9361877441406 1294.000244140625 402.0182800292969 1294.000244140625 C 521.2437744140625 1294.000244140625 617.8955688476563 1378.170043945313 617.8955688476563 1482.000366210938 C 617.8955688476563 1490.132446289063 617.3031005859375 1498.1416015625 616.1531982421875 1506.001342773438 C 617.302978515625 1513.859985351563 617.8955688476563 1521.869262695313 617.8955688476563 1530 C 617.8955688476563 1553.006958007813 613.152099609375 1575.045166015625 604.4677734375 1595.418823242188 C 646.0526123046875 1629.687622070313 672.00048828125 1678.206909179688 672.00048828125 1731.999633789063 C 672.00048828125 1740.13037109375 671.4075927734375 1748.141967773438 670.2578125 1756.000732421875 C 671.4074096679688 1763.8583984375 672.00048828125 1771.869750976563 672.00048828125 1779.999389648438 C 672.00048828125 1883.82958984375 575.3486938476563 1967.999389648438 456.123291015625 1967.999389648438 C 435.3114929199219 1967.999389648438 415.1929931640625 1965.436279296875 396.1506958007813 1960.650024414063 C 357.1214904785156 2009.231201171875 292.3953857421875 2040.999389648438 219.1459808349609 2040.999389648438 Z" stroke="none" fill="#707070"/>
    </g>
  </g>
</svg>
